<?xml version="1.0" encoding="UTF-8"?>
<svg version="1.1" xmlns="http://www.w3.org/2000/svg" width="3000" height="3000">
<path d="M0 0 C1.16432556 0.13151459 1.16432556 0.13151459 2.35217285 0.26568604 C70.91829318 8.04014852 139.58095045 18.53234844 205.55126953 39.23236084 C208.18138101 40.05686014 210.81335885 40.87524926 213.4453125 41.69384766 C282.079695 63.11397504 348.02705431 91.29591325 412 124 C413.00208496 124.51143555 414.00416992 125.02287109 415.03662109 125.54980469 C436.8780751 136.74410715 457.94113683 149.25465311 478.85351562 162.07714844 C481.59805674 163.75436801 484.35023245 165.41727263 487.109375 167.0703125 C497.20090354 173.12998061 506.93039541 179.6219763 516.59570312 186.33837891 C519.00707666 188.00489072 521.43064675 189.65187024 523.859375 191.29296875 C533.51973374 197.82734447 542.95664888 204.5800282 552.22900391 211.65380859 C554.84621411 213.64323471 557.48710183 215.60062857 560.125 217.5625 C571.15476856 225.84973151 581.82770542 234.45804787 592.25341797 243.49169922 C595.19585298 246.03270614 598.15903191 248.5490392 601.125 251.0625 C601.65746338 251.51560547 602.18992676 251.96871094 602.73852539 252.43554688 C604.90116605 254.26769239 607.05636263 256.04008629 609.3671875 257.68359375 C609.90601562 258.11800781 610.44484375 258.55242187 611 259 C611 259.66 611 260.32 611 261 C611.53625 261.21914063 612.0725 261.43828125 612.625 261.6640625 C615.83155202 263.46774801 618.34501244 265.86238405 621 268.375 C621.92147827 269.2417334 621.92147827 269.2417334 622.86157227 270.12597656 C629.66935196 276.59252819 636.33870147 283.20354163 642.99780273 289.8225708 C644.29289903 291.10947596 645.58945457 292.39491424 646.88745117 293.67889404 C648.7310315 295.50467307 650.56763711 297.33718425 652.40234375 299.171875 C652.96727036 299.72966644 653.53219696 300.28745789 654.11424255 300.8621521 C658 304.77084799 658 304.77084799 658 307 C658.66 307 659.32 307 660 307 C661.3046875 308.2578125 661.3046875 308.2578125 662.875 310.125 C663.80699219 311.22134766 663.80699219 311.22134766 664.7578125 312.33984375 C665.49773437 313.21769531 666.23765625 314.09554688 667 315 C667.91288736 316.06481068 668.8270274 317.12854825 669.7421875 318.19140625 C672.32118214 321.18704045 674.8911673 324.19023715 677.45800781 327.19628906 C678.92480572 328.91204316 680.39574033 330.62417093 681.8671875 332.3359375 C707.54468335 362.30657327 728.90872413 395.54083995 748 430 C748.68545898 431.23459961 748.68545898 431.23459961 749.38476562 432.49414062 C789.09067488 504.49499276 809.27716918 591.73427538 806 674 C805.93039062 675.74772705 805.93039062 675.74772705 805.859375 677.53076172 C802.35492434 758.38202254 783.55050642 835.69542233 713 961 C712.50145508 961.66837891 712.00291016 962.33675781 711.48925781 963.02539062 C704.30329548 972.62705944 696.86273218 981.94517616 689 991 C688.36578125 991.73476562 687.7315625 992.46953125 687.078125 993.2265625 C685.39725668 995.16187418 683.69996097 997.08144344 682 999 C681.07223755 1000.05501709 681.07223755 1000.05501709 680.12573242 1001.13134766 C674.45881624 1007.51235771 668.55082411 1013.60411319 662.5065918 1019.6237793 C660.93225845 1021.1927236 659.36338411 1022.76698558 657.79492188 1024.34179688 C652.36886663 1029.77175018 646.85757843 1035.03320913 641 1040 C639.91657777 1040.94893506 638.83449714 1041.89940453 637.75390625 1042.8515625 C628.81022051 1050.65208082 619.50500564 1057.89871365 610 1065 C609.36980957 1065.4729248 608.73961914 1065.94584961 608.09033203 1066.43310547 C593.5603798 1077.31608218 578.65198519 1087.79013162 563 1097 C562.13648926 1097.51224121 561.27297852 1098.02448242 560.38330078 1098.55224609 C495.44865281 1136.97415813 425.31462285 1164.37707572 351.5625 1180.375 C350.80952637 1180.53867065 350.05655273 1180.70234131 349.28076172 1180.87097168 C338.23915532 1183.2541002 327.15445839 1185.22335783 316 1187 C316 1187.33 316 1187.66 316 1188 C316.93231445 1188.18997559 317.86462891 1188.37995117 318.82519531 1188.57568359 C342.5159338 1193.43133028 365.81121899 1199.13836304 389 1206 C389.71033386 1206.20884827 390.42066772 1206.41769653 391.15252686 1206.63287354 C445.55573254 1222.64096191 497.54931282 1244.76688065 548.25 1270 C548.97033417 1270.35744293 549.69066833 1270.71488586 550.43283081 1271.0831604 C557.73082506 1274.71146299 564.94563708 1278.38811127 571.87182617 1282.70019531 C574.22589863 1284.13796998 576.63048341 1285.44904054 579.0625 1286.75 C600.11364738 1298.1551481 620.55470066 1310.92856358 640.13330078 1324.69824219 C642.05494557 1326.03831674 643.99139701 1327.35397555 645.93359375 1328.6640625 C659.44931215 1337.79831175 672.33381429 1347.72507059 685 1358 C686.25757152 1359.00811319 687.51540704 1360.01589709 688.7734375 1361.0234375 C695.91000182 1366.75740579 702.88769219 1372.57049966 709.609375 1378.7890625 C713.65738735 1382.53281249 717.79625426 1386.17896583 722.046875 1389.69140625 C723.01367188 1390.49384766 723.01367188 1390.49384766 724 1391.3125 C724.5775 1391.78300781 725.155 1392.25351563 725.75 1392.73828125 C727 1394 727 1394 727 1396 C727.56227295 1396.23702637 728.1245459 1396.47405273 728.70385742 1396.71826172 C731.52648833 1398.29389301 733.45772006 1400.21574358 735.73828125 1402.5078125 C737.09276367 1403.86519531 737.09276367 1403.86519531 738.47460938 1405.25 C738.9414917 1405.72308594 739.40837402 1406.19617187 739.8894043 1406.68359375 C741.29234121 1408.10458183 742.70373493 1409.51720443 744.11523438 1410.9296875 C748.73980879 1415.58384342 753.24034932 1420.29125562 757.51342773 1425.27050781 C759.57672505 1427.67096736 761.72727674 1429.98760765 763.875 1432.3125 C768.79571476 1437.71491123 773.42798878 1443.30165862 778 1449 C778.95915669 1450.17877511 779.91881803 1451.35713972 780.87890625 1452.53515625 C791.39318429 1465.48674279 800.88847515 1479.03367295 810 1493 C810.46132324 1493.70189453 810.92264648 1494.40378906 811.39794922 1495.12695312 C859.6062261 1568.72089561 884.37052668 1655.92551886 883.84716797 1896.04736328 C876.2481554 1931.90481213 865.52345533 1966.62359807 851.13525391 2000.33740234 C850.16151073 2002.62119655 849.20579151 2004.91086876 848.26171875 2007.20703125 C833.98445512 2041.49555388 814.2444208 2073.65259551 793 2104 C792.51515137 2104.69480469 792.03030273 2105.38960937 791.53076172 2106.10546875 C777.64752141 2125.95160858 762.33516266 2144.79622456 746.05859375 2162.7265625 C744.12342479 2164.86369406 742.2115915 2167.01829702 740.3125 2169.1875 C739.48105469 2170.13689453 739.48105469 2170.13689453 738.6328125 2171.10546875 C737.50957198 2172.40875022 736.40091585 2173.72469857 735.3046875 2175.05078125 C734.77101563 2175.69402344 734.23734375 2176.33726562 733.6875 2177 C733.21699219 2177.5775 732.74648437 2178.155 732.26171875 2178.75 C731 2180 731 2180 729 2180 C728.74927734 2180.57524414 728.49855469 2181.15048828 728.24023438 2181.74316406 C726.83271173 2184.30441196 725.21829975 2186.04057392 723.15625 2188.109375 C722.40472656 2188.86347656 721.65320312 2189.61757812 720.87890625 2190.39453125 C720.09386719 2191.17183594 719.30882813 2191.94914062 718.5 2192.75 C717.71496094 2193.54277344 716.92992188 2194.33554688 716.12109375 2195.15234375 C714.99380859 2196.27576172 714.99380859 2196.27576172 713.84375 2197.421875 C712.81024414 2198.45199707 712.81024414 2198.45199707 711.75585938 2199.50292969 C710 2201 710 2201 708 2201 C707.64035156 2201.86431641 707.64035156 2201.86431641 707.2734375 2202.74609375 C705.74151671 2205.45749956 703.97926948 2207.02441882 701.625 2209.0625 C698.23195023 2212.03569037 694.87116956 2215.02876816 691.56835938 2218.10107422 C686.50029578 2222.80924614 681.30357231 2227.27997562 675.9140625 2231.62109375 C672.5601579 2234.35906681 669.27852922 2237.17267299 666 2240 C648.74985128 2254.82510438 630.73190874 2268.62937874 612.03588867 2281.58520508 C609.75942493 2283.16718222 607.49356736 2284.76387579 605.2265625 2286.359375 C581.4958023 2302.97294062 556.9400064 2318.28233542 532 2333 C530.9373291 2333.62890137 529.8746582 2334.25780273 528.77978516 2334.90576172 C475.90376217 2366.06527504 419.88494805 2390.74856115 362 2411 C361.34672729 2411.22907043 360.69345459 2411.45814087 360.02038574 2411.69415283 C300.69030177 2432.45485457 239.67966678 2448.04640991 178 2460 C177.01805664 2460.19080139 176.03611328 2460.38160278 175.02441406 2460.57818604 C66.18991983 2481.65393765 -44.87637885 2491.9836746 -205.72972107 2494.31785583 C-209.5186676 2494.31238275 -213.30760782 2494.31003825 -217.09655762 2494.3079834 C-259.12824839 2494.27255536 -301.04100923 2493.49246546 -343 2491 C-344.31458191 2490.92267639 -345.62916382 2490.84535278 -346.98358154 2490.76568604 C-377.73176114 2488.93996416 -408.3932051 2486.47429992 -439 2483 C-439 2482.67 -439 2482.34 -439 2482 C-438.36378723 2481.98382629 -437.72757446 2481.96765259 -437.07208252 2481.95098877 C-383.7338288 2480.57418985 -330.89936075 2477.27174741 -278 2470 C-277.13389099 2469.88118469 -276.26778198 2469.76236938 -275.37542725 2469.63995361 C-231.12210483 2463.53028562 -187.41312519 2454.46319751 -144 2444 C-143.13799988 2443.79266235 -142.27599976 2443.58532471 -141.38787842 2443.3717041 C-101.71824332 2433.80404514 -62.61250786 2422.0313566 -24.04772949 2408.70709229 C-22.01343177 2408.00463807 -19.97800774 2407.30553116 -17.94238281 2406.60693359 C0.63382272 2400.21926113 18.93809403 2393.2525325 37.10351562 2385.77929688 C39.01586772 2384.99347969 40.92964769 2384.21123079 42.84375 2383.4296875 C75.93162759 2369.90211182 110.03606549 2355.65926435 140 2336 C141.52521548 2335.02734908 143.05133908 2334.05612142 144.578125 2333.0859375 C160.43092098 2322.96173407 175.6216076 2312.07808249 190.31445312 2300.33837891 C192.02839 2298.97745742 193.75413369 2297.63308597 195.484375 2296.29296875 C208.00668501 2286.58317479 219.86296464 2276.26828818 231.38671875 2265.39453125 C234.51046099 2262.44783659 237.68877479 2259.56661916 240.875 2256.6875 C247.73956651 2250.41375932 254.29345507 2243.81718407 260.875 2237.25 C261.42138123 2236.70620697 261.96776245 2236.16241394 262.53070068 2235.60214233 C268.03155815 2230.12184206 273.47575336 2224.63272855 278.52392578 2218.72558594 C280.78152432 2216.08636886 283.14315237 2213.55094096 285.5 2211 C289.73873308 2206.39302474 293.91567807 2201.74441436 298 2197 C298.43425293 2196.49742676 298.86850586 2195.99485352 299.31591797 2195.47705078 C318.80234965 2172.91758343 336.95381644 2149.4517424 354 2125 C354.40847168 2124.41621582 354.81694336 2123.83243164 355.23779297 2123.23095703 C357.84673133 2119.50187071 360.43137531 2115.7569564 363 2112 C363.37801758 2111.44731445 363.75603516 2110.89462891 364.14550781 2110.32519531 C391.04700265 2070.85625235 414.45195696 2028.86817285 431 1984 C431.41258057 1982.90606934 431.41258057 1982.90606934 431.83349609 1981.79003906 C455.62765701 1918.18844259 465.79058212 1841.75520409 467 1774 C467.02046387 1773.1862793 467.04092773 1772.37255859 467.06201172 1771.53417969 C468.844952 1694.82354247 454.19993739 1619.47049321 424 1549 C423.6380957 1548.14390137 423.27619141 1547.28780273 422.90332031 1546.40576172 C403.6820812 1501.01972583 375.4948756 1458.74967557 344 1421 C343.26305908 1420.11441406 343.26305908 1420.11441406 342.51123047 1419.2109375 C337.18301612 1412.82066228 331.75764341 1406.52864346 326.15625 1400.375 C324.74789922 1398.82377306 323.35144165 1397.26164127 321.96875 1395.6875 C313.28824827 1385.84096073 304.04780057 1376.20187711 294.0078125 1367.7265625 C291.87032577 1365.88849026 289.80324677 1363.98202516 287.73779297 1362.0637207 C281.68798608 1356.44930937 275.44520524 1351.15956985 269 1346 C267.85738016 1345.06595097 266.71548981 1344.13100906 265.57421875 1343.1953125 C235.0257731 1318.27000881 200.81356341 1298.30056891 166 1280 C165.10442383 1279.52353027 164.20884766 1279.04706055 163.28613281 1278.55615234 C118.46058217 1254.79228259 68.86161407 1238.21428427 20 1225 C18.40526855 1224.56228271 18.40526855 1224.56228271 16.77832031 1224.11572266 C-69.69540871 1200.46377577 -158.87950157 1191.20756297 -263 1189 C-262.99855783 1190.04854928 -262.99855783 1190.04854928 -262.99708652 1191.11828136 C-262.97411121 1210.71761343 -263.0478189 1230.31509327 -263.16912389 1249.91398335 C-263.18898575 1253.14729501 -263.20816416 1256.38061061 -263.22735947 1259.61392629 C-263.39914137 1288.52812084 -263.58679211 1317.44222228 -263.77763486 1346.3562966 C-263.89405666 1364.00636525 -264.00755747 1381.65641293 -264.09716797 1399.30664062 C-264.68500367 1514.85635019 -264.68500367 1514.85635019 -267.77606201 1563.46972656 C-268.00654454 1567.10317144 -268.22867505 1570.73706259 -268.44970703 1574.37109375 C-274.52884609 1673.30090805 -284.71022413 1774.43539198 -330.81640625 1917.37109375 C-332.22925714 1920.5092081 -333.38879378 1923.7021533 -334.5625 1926.9375 C-343.93001575 1952.54499081 -355.40115188 1977.81077447 -368 2002 C-368.54366211 2003.04623535 -369.08732422 2004.0924707 -369.64746094 2005.17041016 C-394.60664938 2053.0209665 -423.48026062 2098.45929667 -458 2140 C-458.42249023 2140.50885742 -458.84498047 2141.01771484 -459.28027344 2141.54199219 C-465.25918538 2148.72629471 -471.40383345 2155.70912447 -477.78515625 2162.5390625 C-480.09590932 2164.98753152 -480.09590932 2164.98753152 -482 2168 C-482.66 2168 -483.32 2168 -484 2168 C-484.21213135 2168.53665283 -484.4242627 2169.07330566 -484.64282227 2169.6262207 C-486.50998442 2172.89199111 -489.06575205 2175.35102801 -491.71484375 2177.98046875 C-492.28521866 2178.55275711 -492.85559357 2179.12504547 -493.44325256 2179.7146759 C-494.65380119 2180.92658434 -495.86687448 2182.13597546 -497.08227539 2183.34301758 C-498.90673694 2185.15691507 -500.72046451 2186.98103694 -502.53320312 2188.80664062 C-508.6797973 2194.95991605 -514.89998947 2200.76408352 -521.71459961 2206.17797852 C-524.37602025 2208.29977984 -526.83897431 2210.53866145 -529.3125 2212.875 C-535.05039342 2218.14765882 -541.10180347 2222.92479286 -547.27539062 2227.66943359 C-548.88455169 2228.9109296 -550.48182898 2230.16778654 -552.078125 2231.42578125 C-599.27384132 2268.39575903 -653.79575169 2296.30698903 -711 2314 C-712.46904785 2314.45584473 -712.46904785 2314.45584473 -713.96777344 2314.92089844 C-800.0146116 2341.22624505 -886.74270157 2328.47010207 -1002.93603516 2277.46191406 C-1022.96835631 2266.75504202 -1042.41850197 2254.41970274 -1060 2240 C-1060.52561523 2239.56913086 -1061.05123047 2239.13826172 -1061.59277344 2238.69433594 C-1068.32602115 2233.14907391 -1074.85433806 2227.40459653 -1081.21899414 2221.43969727 C-1083.89464511 2218.92388226 -1083.89464511 2218.92388226 -1087 2217 C-1087 2216.34 -1087 2215.68 -1087 2215 C-1087.85658203 2214.65001953 -1087.85658203 2214.65001953 -1088.73046875 2214.29296875 C-1091.54340722 2212.69041688 -1093.2002773 2210.76237819 -1095.3125 2208.3125 C-1097.95974595 2205.28954378 -1100.60197684 2202.34568308 -1103.5 2199.5625 C-1108.0676094 2195.03641432 -1112.04488552 2190.06053914 -1116 2185 C-1116.54720703 2184.30213379 -1117.09441406 2183.60426758 -1117.65820312 2182.88525391 C-1127.35398055 2170.44374626 -1136.05502579 2157.62460449 -1144 2144 C-1144.5062793 2143.13713379 -1145.01255859 2142.27426758 -1145.53417969 2141.38525391 C-1192.70898443 2060.23065243 -1205.66887903 1956.86823304 -1182.58984375 1848.35766602 C-1173.85827633 1816.69811939 -1161.39999036 1786.43721356 -1145 1758 C-1144.5035498 1757.13503906 -1144.00709961 1756.27007813 -1143.49560547 1755.37890625 C-1136.61589835 1743.46095058 -1129.18585648 1732.06097199 -1121 1721 C-1120.56445801 1720.41138184 -1120.12891602 1719.82276367 -1119.68017578 1719.21630859 C-1107.28541734 1702.58036022 -1093.48526643 1685.87392478 -1078 1672 C-1077.34 1672 -1076.68 1672 -1076 1672 C-1076 1671.34 -1076 1670.68 -1076 1670 C-1074 1668.375 -1074 1668.375 -1072 1667 C-1071.34 1667.33 -1070.68 1667.66 -1070 1668 C-1070.62003906 1668.92554688 -1071.24007812 1669.85109375 -1071.87890625 1670.8046875 C-1108.17246878 1725.59058455 -1132.41483888 1787.21199754 -1138 1853 C-1138.11085938 1854.25425781 -1138.22171875 1855.50851562 -1138.3359375 1856.80078125 C-1146.55056233 1965.47804753 -1103.49164428 2072.02294802 -1031 2168 C-1019.00602319 2181.68674625 -1006.4108716 2193.30300541 -991 2203 C-990.12698242 2203.56219238 -990.12698242 2203.56219238 -989.23632812 2204.13574219 C-943.13987849 2233.77664879 -887.01086344 2246.21220095 -832.75 2246.25 C-831.87215851 2246.25067474 -830.99431702 2246.25134949 -830.08987427 2246.25204468 C-779.95783037 2246.19117237 -720.55065378 2234.58616425 -683.6875 2197.91015625 C-626.78479866 2138.9188804 -618.38781494 2033.96975116 -607.14794701 1831.21574801 C-607.30430279 1823.19825251 -607.5023785 1815.18170785 -607.70315504 1807.16522455 C-607.79503461 1803.45973431 -607.88281401 1799.75415074 -607.97064972 1796.04856277 C-608.27477119 1783.21973637 -608.59214403 1770.39124964 -608.9114356 1757.56279325 C-609.03295314 1752.67435189 -609.15379997 1747.78589402 -609.27466804 1742.89743656 C-610.01457701 1712.97741658 -610.7644505 1683.05765059 -611.51848416 1653.13798369 C-612.43471874 1616.78223613 -613.34611258 1580.4263693 -614.25 1544.0703125 C-614.26914111 1543.30045253 -614.28828222 1542.53059257 -614.30800337 1541.73740351 C-615.70845129 1485.40188391 -617.0546686 1429.06530059 -618.31398869 1372.72642803 C-618.37451238 1370.0217905 -618.43523096 1367.31715741 -618.49602509 1364.61252594 C-619.42262199 1323.38834513 -620.28835452 1282.16426345 -620.95266724 1240.93486786 C-620.99745301 1238.15792597 -621.04284243 1235.3809946 -621.08837891 1232.60406494 C-621.2665635 1221.67379184 -621.42553551 1210.74336792 -621.5625 1199.8125 C-621.57284019 1198.99064083 -621.58318039 1198.16878166 -621.59383392 1197.32201767 C-624.14049153 992.51319722 -624.14049153 992.51319722 -597 763 C-596.8616272 762.33242676 -596.72325439 761.66485352 -596.58068848 760.97705078 C-583.98536956 700.25962249 -563.82028029 639.96855947 -533 586 C-532.61134766 585.31679688 -532.22269531 584.63359375 -531.82226562 583.9296875 C-518.59818192 560.85283048 -503.17391563 538.64304092 -485.44921875 518.80859375 C-483.03281794 516.27463543 -483.03281794 516.27463543 -482 514 C-481.34 514 -480.68 514 -480 514 C-479.77884521 513.45432373 -479.55769043 512.90864746 -479.32983398 512.34643555 C-477.57831333 509.2559518 -475.2239146 506.93811836 -472.72265625 504.45703125 C-472.19667343 503.92913498 -471.67069061 503.40123871 -471.12876892 502.85734558 C-470.01237687 501.73959418 -468.89346166 500.62435797 -467.7722168 499.51147461 C-466.09260969 497.84242051 -464.42374589 496.16317827 -462.75585938 494.48242188 C-456.15703856 487.87489872 -449.33589987 481.79408326 -442 476 C-440.62443553 474.86842423 -439.2517591 473.73332297 -437.8828125 472.59375 C-429.8400334 465.95471776 -421.68623012 459.78388497 -413 454 C-411.81823448 453.19384463 -410.63726883 452.38651568 -409.45703125 451.578125 C-370.49120855 425.02536678 -326.85506924 406.10001122 -282 392 C-280.75283203 391.60651367 -280.75283203 391.60651367 -279.48046875 391.20507812 C-242.94481589 379.8430213 -204.96503506 373.30156188 -166.9375 369.6875 C-166.08074677 369.60600708 -165.22399353 369.52451416 -164.34127808 369.44055176 C-144.44216422 367.5815256 -124.60841206 366.7918288 -104.625 366.8125 C-103.62619812 366.81277191 -102.62739624 366.81304382 -101.59832764 366.81332397 C-76.51972358 366.84453055 -51.84934296 368.49425441 -27 372 C-27 372.66 -27 373.32 -27 374 C-27.58152832 374.05945801 -28.16305664 374.11891602 -28.76220703 374.18017578 C-50.44269173 376.4835417 -70.47654401 381.12476354 -90 391 C-90.68255859 391.34401855 -91.36511719 391.68803711 -92.06835938 392.04248047 C-107.75492974 400.09216789 -121.36260598 410.77581777 -134 423 C-134.49983398 423.47405273 -134.99966797 423.94810547 -135.51464844 424.43652344 C-143.17058381 431.70407908 -149.81261793 439.44044401 -156 448 C-156.47969238 448.65661621 -156.95938477 449.31323242 -157.45361328 449.98974609 C-213.12081472 526.37781519 -233.39712464 625.43797046 -250.87432861 792.88751221 C-250.98462282 794.74151554 -251.10095363 796.59515771 -251.21826172 798.44873047 C-252.00165501 811.01834859 -252.01734866 823.5682061 -251.97529399 836.1560775 C-251.89640715 863.63634203 -252.30228366 891.10627211 -252.742412 918.58230001 C-252.85362069 925.53037696 -252.9610526 932.47851115 -253.06850214 939.42664706 C-253.26067702 951.84429403 -253.4563737 964.2618829 -253.65405273 976.67944336 C-253.84432658 988.63187038 -254.03152222 1000.58434081 -254.21557617 1012.53686523 C-254.41814525 1025.69154441 -254.62249485 1038.84619381 -254.82977968 1052.0007996 C-254.85198571 1053.41018512 -254.87419073 1054.81957066 -254.89639473 1056.22895622 C-254.90731046 1056.92168248 -254.91822619 1057.61440873 -254.9294727 1058.32812669 C-255.00508799 1063.13356285 -255.07951393 1067.93901653 -255.15348625 1072.74447823 C-256.01010793 1128.30547158 -256.01010793 1128.30547158 -257 1151 C-150.30787778 1149.32452192 -44.06529025 1134.69551979 70.8125 1114.25 C71.84114166 1114.0652713 72.86978333 1113.8805426 73.92959595 1113.69021606 C84.26199117 1111.82942085 94.58588452 1109.92279232 104.890625 1107.9140625 C106.07547234 1107.68858734 106.07547234 1107.68858734 107.28425598 1107.45855713 C139.45775722 1101.08608503 171.10995251 1081.21664021 198.04296875 1063.29833984 C199.92762517 1062.04801514 201.82149628 1060.8131314 203.71875 1059.58203125 C219.25401922 1049.4469103 233.98840532 1038.2557597 248.26757812 1026.42822266 C250.74310877 1024.3873751 253.24998215 1022.38572864 255.75 1020.375 C260.3908567 1016.59330038 264.78915384 1012.58462671 269.11816406 1008.45263672 C272.78728642 1005 272.78728642 1005 275 1005 C275 1004.34 275 1003.68 275 1003 C276.37866211 1001.64038086 276.37866211 1001.64038086 278.33984375 1000.02734375 C283.68917194 995.47635246 288.60929047 990.53692242 293.5625 985.5625 C294.46935547 984.65951172 295.37621094 983.75652344 296.31054688 982.82617188 C301.41674929 977.71256381 306.31948705 972.50461465 311 967 C311.96139486 965.89379654 312.92360351 964.78829969 313.88671875 963.68359375 C329.16437583 946.0198968 343.35663721 927.64674958 356 908 C356.48694336 907.24541504 356.97388672 906.49083008 357.47558594 905.71337891 C376.19305485 876.53892657 391.59775721 845.74101454 403 813 C403.37898438 811.91235352 403.75796875 810.82470703 404.1484375 809.70410156 C416.02254608 775.18750238 423.20165291 739.38689049 426 703 C426.16628906 701.05287109 426.16628906 701.05287109 426.3359375 699.06640625 C433.4390626 602.21433563 406.02470999 507.30409736 355 393 C354.27804443 391.58509277 354.27804443 391.58509277 353.54150391 390.14160156 C342.74475188 369.0005962 330.88188599 348.93147044 318 329 C317.60570801 328.38785645 317.21141602 327.77571289 316.80517578 327.14501953 C308.53992677 314.35346853 299.56233163 301.85573637 290 290 C289.3203418 289.15453613 289.3203418 289.15453613 288.62695312 288.29199219 C271.82103053 266.97517531 271.82103053 266.97517531 253.1875 247.2890625 C252 246 252 246 252 244 C251.01 243.67 250.02 243.34 249 243 C249 242.34 249 241.68 249 241 C248.443125 240.79375 247.88625 240.5875 247.3125 240.375 C244.74714718 238.84965508 243.30193169 237.00870563 241.46484375 234.69140625 C239.29581256 232.18689824 236.78238034 230.14917454 234.26171875 228.0078125 C230.70731511 224.85243518 227.41980113 221.4394866 224.1015625 218.0390625 C222.16903954 215.95873909 222.16903954 215.95873909 220 215 C220 214.34 220 213.68 220 213 C219.46890625 212.77957031 218.9378125 212.55914062 218.390625 212.33203125 C215.15106062 210.52697985 212.51604224 208.12881261 209.75 205.6875 C197.61555388 195.15019894 185.22060755 185.14259148 172 176 C170.68744334 175.08471666 169.37494511 174.16934953 168.0625 173.25390625 C149.03719765 160.03328356 129.38456493 148.00976502 109 137 C108.04673828 136.48308594 107.09347656 135.96617187 106.11132812 135.43359375 C30.50639712 94.66764625 -53.9012048 71.27032174 -145.94317627 62.19854736 C-147.82192671 62.0171896 -149.69983517 61.82716293 -151.57763672 61.63623047 C-236.60859266 53.09622576 -323.44650818 69.39824922 -485 126 C-485.96421875 126.43135254 -486.9284375 126.86270508 -487.921875 127.30712891 C-508.06563445 136.33424886 -527.94596474 145.83651729 -547 157 C-548.74546824 157.96656268 -550.49538894 158.92513537 -552.25 159.875 C-553.136875 160.35839844 -554.02375 160.84179688 -554.9375 161.33984375 C-556.57444558 162.22721859 -558.21223293 163.11309781 -559.85546875 163.98876953 C-572.45745715 170.71328317 -584.36736047 178.30567337 -596.26342773 186.203125 C-599.021516 188.01412773 -601.80313331 189.78257972 -604.59375 191.54296875 C-609.68258437 194.76892222 -614.64010008 198.15157271 -619.5625 201.625 C-620.4174707 202.22691162 -621.27244141 202.82882324 -622.15332031 203.44897461 C-624.77144725 205.29571501 -627.38597148 207.14746448 -630 209 C-630.7945459 209.56058105 -631.5890918 210.12116211 -632.40771484 210.69873047 C-642.70924633 217.97715118 -652.61432601 225.60442212 -662.33740234 233.63720703 C-665.15858316 235.9496639 -668.0468357 238.17291201 -670.93359375 240.40234375 C-677.66421192 245.60616763 -684.14430725 250.97181997 -690.42578125 256.7109375 C-693.09455453 259.08408036 -695.84024325 261.32701251 -698.625 263.5625 C-702.71206218 266.86778939 -706.44784348 270.33219716 -710.10546875 274.1015625 C-712.00005928 276.0000594 -713.96512408 277.7535628 -716 279.5 C-719.42782597 282.44578795 -722.61134817 285.56175347 -725.75 288.8125 C-727.69340591 290.70192241 -729.67909397 292.46907424 -731.73046875 294.23828125 C-736.1098628 298.04322871 -740.22317501 302.07500603 -744.3125 306.1875 C-745.01439453 306.88552734 -745.71628906 307.58355469 -746.43945312 308.30273438 C-747.11556641 308.98013672 -747.79167969 309.65753906 -748.48828125 310.35546875 C-749.09196533 310.96028076 -749.69564941 311.56509277 -750.31762695 312.18823242 C-752.07086468 313.99950427 -752.07086468 313.99950427 -753.59448242 316.2277832 C-754.29021362 317.10503052 -754.29021362 317.10503052 -755 318 C-755.66 318 -756.32 318 -757 318 C-757.24363281 318.57234375 -757.48726562 319.1446875 -757.73828125 319.734375 C-759.22517298 322.40433538 -760.98083908 324.13829007 -763.1875 326.25 C-766.67596998 329.66070154 -769.95484129 333.14580219 -773.12890625 336.84765625 C-775.33079829 339.38052162 -777.60195826 341.84332522 -779.875 344.3125 C-784.03824086 348.87314112 -787.97020391 353.57468146 -791.84765625 358.37890625 C-793.86234384 360.83236428 -795.93699015 363.20496568 -798.0625 365.5625 C-802.24417203 370.22160702 -806.13183498 375.07941531 -810 380 C-810.78761719 380.99257813 -811.57523438 381.98515625 -812.38671875 383.0078125 C-815.27730306 386.65675465 -818.14273528 390.32492563 -821 394 C-821.6094043 394.78342773 -822.21880859 395.56685547 -822.84667969 396.37402344 C-830.6765107 406.46884297 -838.27701876 416.65367894 -845.41308594 427.25219727 C-848.70360028 432.13517704 -852.10106959 436.90822918 -855.625 441.625 C-860.92333673 448.75510724 -865.74644373 456.14457406 -870.50048828 463.64550781 C-872.07914018 466.12426374 -873.67676943 468.5900367 -875.27734375 471.0546875 C-884.35548836 485.08935711 -892.76557475 499.4571899 -901 514 C-901.57717773 515.01400879 -902.15435547 516.02801758 -902.74902344 517.07275391 C-924.32686398 555.0032249 -944.22219589 593.69801592 -961 634 C-961.5048291 635.21187988 -962.0096582 636.42375977 -962.52978516 637.67236328 C-991.0556748 706.60153548 -1010.96701606 778.89454152 -1020 853 C-1020.15162598 854.23492188 -1020.30325195 855.46984375 -1020.45947266 856.7421875 C-1029.93088095 935.83004129 -1025.47943038 1016.84607667 -985 1173 C-984.60458008 1174.13066895 -984.20916016 1175.26133789 -983.80175781 1176.42626953 C-973.15566511 1206.64031284 -959.59028177 1236.73045788 -942.65600586 1263.93579102 C-942.17655518 1264.70721436 -941.69710449 1265.4786377 -941.203125 1266.2734375 C-940.77676758 1266.94810059 -940.35041016 1267.62276367 -939.91113281 1268.31787109 C-939 1270 -939 1270 -939 1272 C-943.45539751 1270.45286955 -947.18617215 1268.06770524 -951.0625 1265.4375 C-951.7237085 1264.99204834 -952.38491699 1264.54659668 -953.06616211 1264.08764648 C-959.19817879 1259.9240773 -965.13644928 1255.53367324 -971 1251 C-971.84111328 1250.35611328 -971.84111328 1250.35611328 -972.69921875 1249.69921875 C-979.92767129 1244.16219219 -986.86598191 1238.46596121 -993.546875 1232.2734375 C-995.70980373 1230.26893986 -997.90047801 1228.31050929 -1000.125 1226.375 C-1001.05699219 1225.56095703 -1001.05699219 1225.56095703 -1002.0078125 1224.73046875 C-1003.49798243 1223.43606624 -1004.99369458 1222.14803929 -1006.4921875 1220.86328125 C-1007.31976562 1220.14527344 -1008.14734375 1219.42726563 -1009 1218.6875 C-1009.763125 1218.03136719 -1010.52625 1217.37523437 -1011.3125 1216.69921875 C-1013 1215 -1013 1215 -1013 1213 C-1013.66 1213 -1014.32 1213 -1015 1213 C-1015 1212.34 -1015 1211.68 -1015 1211 C-1015.66 1211 -1016.32 1211 -1017 1211 C-1017 1210.34 -1017 1209.68 -1017 1209 C-1017.66 1209 -1018.32 1209 -1019 1209 C-1020.48046875 1207.49609375 -1020.48046875 1207.49609375 -1022.1875 1205.4375 C-1024.53279758 1202.6746132 -1026.90829405 1200.03320243 -1029.5 1197.5 C-1033.21200693 1193.8372675 -1036.61554238 1189.96502735 -1040 1186 C-1040.83660156 1185.02933594 -1041.67320312 1184.05867188 -1042.53515625 1183.05859375 C-1048.95793005 1175.57281132 -1055.0869328 1167.89490825 -1061 1160 C-1061.54060059 1159.28005859 -1062.08120117 1158.56011719 -1062.63818359 1157.81835938 C-1070.42618905 1147.4227531 -1077.97460593 1136.92660451 -1085 1126 C-1085.47147461 1125.26813477 -1085.94294922 1124.53626953 -1086.42871094 1123.78222656 C-1093.10134222 1113.39341287 -1099.55031012 1102.89217592 -1105.72265625 1092.19873047 C-1107.01851452 1089.9681304 -1108.33598536 1087.7513831 -1109.65625 1085.53515625 C-1152.14486872 1013.53601768 -1183.45181154 929.01842458 -1204.75 817.4375 C-1204.85132233 816.72022736 -1204.95264465 816.00295471 -1205.05703735 815.26394653 C-1208.64183123 789.52970595 -1209.41242161 763.69228113 -1209.375 737.75 C-1209.37464123 736.64029846 -1209.37464123 736.64029846 -1209.37427521 735.50817871 C-1209.3643487 711.14244645 -1208.55456573 687.13951291 -1205 663 C-1204.89109436 662.24209167 -1204.78218872 661.48418335 -1204.66998291 660.70330811 C-1195.30671457 595.60329852 -1175.68847762 532.71917482 -1146 474 C-1145.24589844 472.50605713 -1145.24589844 472.50605713 -1144.4765625 470.98193359 C-1138.08682598 458.39099022 -1131.39040843 446.03213298 -1124 434 C-1123.55221191 433.2692627 -1123.10442383 432.53852539 -1122.64306641 431.78564453 C-1114.510408 418.57608154 -1105.84529307 405.74077027 -1097 393 C-1096.51756836 392.30471191 -1096.03513672 391.60942383 -1095.53808594 390.89306641 C-1086.63295196 378.11200399 -1076.90430081 366.01650833 -1067 354 C-1065.49928825 352.16724924 -1063.99929362 350.33391105 -1062.5 348.5 C-1061.76652344 347.60667969 -1061.03304687 346.71335937 -1060.27734375 345.79296875 C-1058.67305774 343.82544817 -1057.08251792 341.85109455 -1055.50390625 339.86328125 C-1054.69824219 338.85652344 -1053.89257812 337.84976562 -1053.0625 336.8125 C-1051.96615234 335.42998047 -1051.96615234 335.42998047 -1050.84765625 334.01953125 C-1050.23792969 333.35308594 -1049.62820313 332.68664062 -1049 332 C-1048.34 332 -1047.68 332 -1047 332 C-1046.59624146 331.11405151 -1046.59624146 331.11405151 -1046.18432617 330.21020508 C-1044.99881181 327.99778259 -1043.76746345 326.45664012 -1042.05078125 324.63671875 C-1041.45700684 324.00419189 -1040.86323242 323.37166504 -1040.25146484 322.7199707 C-1039.61160645 322.04925537 -1038.97174805 321.37854004 -1038.3125 320.6875 C-1037.6520166 319.98906982 -1036.9915332 319.29063965 -1036.31103516 318.57104492 C-1029.84547414 311.76836964 -1023.21935164 305.12901301 -1016.54663086 298.53027344 C-1013.10732603 295.12734326 -1009.69764852 291.69531154 -1006.29296875 288.2578125 C-1004.9245318 286.88015605 -1003.55604103 285.50255306 -1002.1875 284.125 C-1001.51396484 283.44308594 -1000.84042969 282.76117187 -1000.14648438 282.05859375 C-996.17007686 278.06316036 -992.09420851 274.25625757 -987.82397461 270.57666016 C-985.39644673 268.47828309 -983.04431887 266.30221681 -980.6875 264.125 C-976.20337072 260.03562213 -971.59732762 256.15380979 -966.875 252.34375 C-964.30664766 250.2499845 -961.78005017 248.11856726 -959.26318359 245.96386719 C-952.99778346 240.60419554 -946.5747743 235.49330629 -939.99951172 230.51806641 C-937.66132472 228.74287144 -935.33256285 226.95564639 -933.00390625 225.16796875 C-923.12747008 217.59579545 -913.2176424 210.10721654 -903 203 C-902.0817041 202.35957764 -901.1634082 201.71915527 -900.21728516 201.05932617 C-891.9965786 195.34435301 -883.70764059 189.73779773 -875.375 184.1875 C-874.3957103 183.53494232 -874.3957103 183.53494232 -873.39663696 182.86920166 C-857.21127383 172.09244141 -840.84119026 161.72410986 -824 152 C-823.21995605 151.54689453 -822.43991211 151.09378906 -821.63623047 150.62695312 C-806.93182233 142.09060948 -792.01498335 133.97545045 -777 126 C-775.96327148 125.44666992 -774.92654297 124.89333984 -773.85839844 124.32324219 C-757.50687147 115.61174491 -740.88188343 107.62928916 -724 100 C-722.98566895 99.53916016 -721.97133789 99.07832031 -720.92626953 98.60351562 C-688.74886255 84.0281982 -655.86085918 71.40661719 -622.48895264 59.86132812 C-620.09740513 59.03370806 -617.70708653 58.20261882 -615.31689453 57.37109375 C-559.46211773 37.9910101 -502.02956836 24.09404654 -444 13 C-442.82606689 12.77437378 -442.82606689 12.77437378 -441.62841797 12.54418945 C-398.34859766 4.25119285 -354.33897206 -1.23946789 -310.4296875 -4.80072021 C-308.00204115 -4.99983259 -305.57520812 -5.20700688 -303.1484375 -5.41650391 C-207.25761097 -13.64939952 -109.79309302 -11.57674345 0 0 Z " fill="#EDEDED" transform="translate(1650,257)"/>
<path d="" fill="#E7E7E7" transform="translate(0,0)"/>
<path d="" fill="#E3E3E3" transform="translate(0,0)"/>
</svg>
